<svg width="19" height="16" viewBox="0 0 19 16" fill="none" xmlns="http://www.w3.org/2000/svg">
<path d="M10.9407 3.05498C11.779 3.58058 12.3668 4.46999 12.4738 5.50241C12.8157 5.66214 13.1951 5.754 13.5974 5.754C15.066 5.754 16.2564 4.56367 16.2564 3.09526C16.2564 1.62662 15.066 0.436279 13.5974 0.436279C12.1428 0.436732 10.9628 1.6058 10.9407 3.05498ZM9.19872 8.49919C10.6674 8.49919 11.8577 7.30862 11.8577 5.84021C11.8577 4.3718 10.6671 3.18146 9.19872 3.18146C7.73031 3.18146 6.53929 4.37203 6.53929 5.84044C6.53929 7.30885 7.73031 8.49919 9.19872 8.49919ZM10.3266 8.68042H8.07037C6.19311 8.68042 4.66588 10.2079 4.66588 12.0851V14.8443L4.67289 14.8876L4.86295 14.9471C6.65445 15.5068 8.21088 15.6935 9.49195 15.6935C11.9941 15.6935 13.4444 14.9801 13.5338 14.9346L13.7114 14.8448H13.7304V12.0851C13.7311 10.2079 12.2039 8.68042 10.3266 8.68042ZM14.7257 5.93546H12.4869C12.4627 6.83122 12.0803 7.63782 11.4755 8.21795C13.1442 8.71413 14.3651 10.2615 14.3651 12.0892V12.9395C16.5756 12.8585 17.8494 12.232 17.9334 12.1899L18.111 12.0998H18.13V9.33973C18.13 7.4627 16.6028 5.93546 14.7257 5.93546ZM4.53307 5.75446C5.05323 5.75446 5.5372 5.60264 5.94717 5.34403C6.0775 4.49398 6.53318 3.75118 7.18412 3.24526C7.18684 3.19549 7.19159 3.14616 7.19159 3.09593C7.19159 1.6273 6.00102 0.436958 4.53307 0.436958C3.0642 0.436958 1.87409 1.6273 1.87409 3.09593C1.87409 4.56389 3.0642 5.75446 4.53307 5.75446ZM6.92099 8.21795C6.31914 7.64076 5.93812 6.83846 5.91029 5.94813C5.82726 5.94202 5.74513 5.93546 5.66051 5.93546H3.40449C1.52724 5.93546 0 7.4627 0 9.33973V12.0994L0.00701398 12.1419L0.19707 12.2019C1.63426 12.6506 2.91691 12.8574 4.031 12.9225V12.0892C4.03145 10.2615 5.25188 8.71458 6.92099 8.21795Z" fill="#00A77F"/>
</svg>
